<svg width="12" height="12" viewBox="0 0 12 12" fill="none" xmlns="http://www.w3.org/2000/svg">
<path d="M7.41 6.00019L11.71 1.71019C11.8983 1.52188 12.0041 1.26649 12.0041 1.00019C12.0041 0.733884 11.8983 0.478489 11.71 0.290185C11.5217 0.101882 11.2663 -0.00390625 11 -0.00390625C10.7337 -0.00390625 10.4783 0.101882 10.29 0.290185L6 4.59019L1.71 0.290185C1.5217 0.101882 1.2663 -0.00390625 1 -0.00390625C0.733698 -0.00390625 0.478304 0.101882 0.29 0.290185C0.101696 0.478489 -0.00409174 0.733884 -0.00409174 1.00019C-0.00409174 1.26649 0.101696 1.52188 0.29 1.71019L4.59 6.00019L0.29 10.2902C0.196272 10.3831 0.121877 10.4937 0.0711088 10.6156C0.0203401 10.7375 -0.00579834 10.8682 -0.00579834 11.0002C-0.00579834 11.1322 0.0203401 11.2629 0.0711088 11.3848C0.121877 11.5066 0.196272 11.6172 0.29 11.7102C0.382963 11.8039 0.493564 11.8783 0.615423 11.9291C0.737282 11.9798 0.867988 12.006 1 12.006C1.13201 12.006 1.26272 11.9798 1.38458 11.9291C1.50644 11.8783 1.61704 11.8039 1.71 11.7102L6 7.41019L10.29 11.7102C10.383 11.8039 10.4936 11.8783 10.6154 11.9291C10.7373 11.9798 10.868 12.006 11 12.006C11.132 12.006 11.2627 11.9798 11.3846 11.9291C11.5064 11.8783 11.617 11.8039 11.71 11.7102C11.8037 11.6172 11.8781 11.5066 11.9289 11.3848C11.9797 11.2629 12.0058 11.1322 12.0058 11.0002C12.0058 10.8682 11.9797 10.7375 11.9289 10.6156C11.8781 10.4937 11.8037 10.3831 11.71 10.2902L7.41 6.00019Z" fill="#ABABAB"/>
</svg>
