<svg width="12" height="12" viewBox="0 0 12 12" fill="none" xmlns="http://www.w3.org/2000/svg">
<path d="M11.7102 5.2899L6.71019 0.289896C6.61508 0.198856 6.50294 0.127491 6.38019 0.0798963C6.13672 -0.0201217 5.86365 -0.0201217 5.62019 0.0798963C5.49743 0.127491 5.38529 0.198856 5.29019 0.289896L0.290185 5.2899C0.196947 5.38313 0.122986 5.49382 0.072526 5.61565C0.0220657 5.73747 -0.00390625 5.86804 -0.00390625 5.9999C-0.00390625 6.2662 0.101882 6.52159 0.290185 6.7099C0.478489 6.8982 0.733884 7.00399 1.00019 7.00399C1.26649 7.00399 1.52188 6.8982 1.71019 6.7099L5.00019 3.4099V10.9999C5.00019 11.2651 5.10554 11.5195 5.29308 11.707C5.48062 11.8945 5.73497 11.9999 6.00019 11.9999C6.2654 11.9999 6.51976 11.8945 6.70729 11.707C6.89483 11.5195 7.00019 11.2651 7.00019 10.9999V3.4099L10.2902 6.7099C10.3831 6.80363 10.4937 6.87802 10.6156 6.92879C10.7375 6.97956 10.8682 7.00569 11.0002 7.00569C11.1322 7.00569 11.2629 6.97956 11.3848 6.92879C11.5066 6.87802 11.6172 6.80363 11.7102 6.7099C11.8039 6.61693 11.8783 6.50633 11.9291 6.38447C11.9798 6.26261 12.006 6.13191 12.006 5.9999C12.006 5.86788 11.9798 5.73718 11.9291 5.61532C11.8783 5.49346 11.8039 5.38286 11.7102 5.2899Z" fill="black"/>
</svg>
