<svg width="12" height="12" viewBox="0 0 12 12" fill="none" xmlns="http://www.w3.org/2000/svg">
<path d="M11.7102 5.29C11.6172 5.19627 11.5066 5.12188 11.3848 5.07111C11.2629 5.02034 11.1322 4.9942 11.0002 4.9942C10.8682 4.9942 10.7375 5.02034 10.6156 5.07111C10.4937 5.12188 10.3831 5.19627 10.2902 5.29L7.00019 8.59V1C7.00019 0.734784 6.89483 0.48043 6.70729 0.292893C6.51976 0.105357 6.2654 0 6.00019 0C5.73497 0 5.48062 0.105357 5.29308 0.292893C5.10554 0.48043 5.00019 0.734784 5.00019 1V8.59L1.71019 5.29C1.52188 5.1017 1.26649 4.99591 1.00019 4.99591C0.733884 4.99591 0.478489 5.1017 0.290185 5.29C0.101882 5.4783 -0.00390625 5.7337 -0.00390625 6C-0.00390625 6.2663 0.101882 6.5217 0.290185 6.71L5.29019 11.71C5.38529 11.801 5.49743 11.8724 5.62019 11.92C5.73989 11.9729 5.86931 12.0002 6.00019 12.0002C6.13106 12.0002 6.26049 11.9729 6.38019 11.92C6.50294 11.8724 6.61508 11.801 6.71019 11.71L11.7102 6.71C11.8039 6.61704 11.8783 6.50644 11.9291 6.38458C11.9798 6.26272 12.006 6.13201 12.006 6C12.006 5.86799 11.9798 5.73728 11.9291 5.61542C11.8783 5.49356 11.8039 5.38296 11.7102 5.29Z" fill="black"/>
</svg>
