<svg type="image/svg+xml" fill="none" xmlns="http://www.w3.org/2000/svg">

    <symbol id="shoping-bag" viewBox="0 0 16 20">
        <path d="M15 5H12V4C12 2.93913 11.5786 1.92172 10.8284 1.17157C10.0783 0.421427 9.06087 0 8 0C6.93913 0 5.92172 0.421427 5.17157 1.17157C4.42143 1.92172 4 2.93913 4 4V5H1C0.734784 5 0.48043 5.10536 0.292893 5.29289C0.105357 5.48043 0 5.73478 0 6V17C0 17.7956 0.316071 18.5587 0.87868 19.1213C1.44129 19.6839 2.20435 20 3 20H13C13.7956 20 14.5587 19.6839 15.1213 19.1213C15.6839 18.5587 16 17.7956 16 17V6C16 5.73478 15.8946 5.48043 15.7071 5.29289C15.5196 5.10536 15.2652 5 15 5ZM6 4C6 3.46957 6.21071 2.96086 6.58579 2.58579C6.96086 2.21071 7.46957 2 8 2C8.53043 2 9.03914 2.21071 9.41421 2.58579C9.78929 2.96086 10 3.46957 10 4V5H6V4ZM14 17C14 17.2652 13.8946 17.5196 13.7071 17.7071C13.5196 17.8946 13.2652 18 13 18H3C2.73478 18 2.48043 17.8946 2.29289 17.7071C2.10536 17.5196 2 17.2652 2 17V7H4V8C4 8.26522 4.10536 8.51957 4.29289 8.70711C4.48043 8.89464 4.73478 9 5 9C5.26522 9 5.51957 8.89464 5.70711 8.70711C5.89464 8.51957 6 8.26522 6 8V7H10V8C10 8.26522 10.1054 8.51957 10.2929 8.70711C10.4804 8.89464 10.7348 9 11 9C11.2652 9 11.5196 8.89464 11.7071 8.70711C11.8946 8.51957 12 8.26522 12 8V7H14V17Z" fill="black"/>
    </symbol>

    <symbol id="search" viewBox="0 0 21 21">
        <path d="M20.7099 19.2899L16.9999 15.6099C18.44 13.8143 19.1374 11.5352 18.9487 9.2412C18.76 6.94721 17.6996 4.81269 15.9854 3.27655C14.2713 1.74041 12.0337 0.919414 9.73283 0.982375C7.43194 1.04534 5.24263 1.98747 3.61505 3.61505C1.98747 5.24263 1.04534 7.43194 0.982375 9.73283C0.919414 12.0337 1.74041 14.2713 3.27655 15.9854C4.81269 17.6996 6.94721 18.76 9.2412 18.9487C11.5352 19.1374 13.8143 18.44 15.6099 16.9999L19.2899 20.6799C19.3829 20.7736 19.4935 20.848 19.6153 20.8988C19.7372 20.9496 19.8679 20.9757 19.9999 20.9757C20.1319 20.9757 20.2626 20.9496 20.3845 20.8988C20.5063 20.848 20.6169 20.7736 20.7099 20.6799C20.8901 20.4934 20.9909 20.2442 20.9909 19.9849C20.9909 19.7256 20.8901 19.4764 20.7099 19.2899ZM9.9999 16.9999C8.61544 16.9999 7.26206 16.5894 6.11091 15.8202C4.95977 15.051 4.06256 13.9578 3.53275 12.6787C3.00293 11.3996 2.86431 9.99214 3.13441 8.63427C3.4045 7.27641 4.07119 6.02912 5.05016 5.05016C6.02912 4.07119 7.27641 3.4045 8.63427 3.13441C9.99214 2.86431 11.3996 3.00293 12.6787 3.53275C13.9578 4.06256 15.051 4.95977 15.8202 6.11091C16.5894 7.26206 16.9999 8.61544 16.9999 9.9999C16.9999 11.8564 16.2624 13.6369 14.9497 14.9497C13.6369 16.2624 11.8564 16.9999 9.9999 16.9999Z" fill="black"/>
    </symbol>

    <symbol id="angle-right" viewBox="0 0 8 12">
        <path d="M6.83019 5.28995L2.59019 1.04995C2.49722 0.95622 2.38662 0.881826 2.26476 0.831057C2.1429 0.780288 2.0122 0.75415 1.88019 0.75415C1.74818 0.75415 1.61747 0.780288 1.49561 0.831057C1.37375 0.881826 1.26315 0.95622 1.17019 1.04995C0.983936 1.23731 0.879395 1.49076 0.879395 1.75495C0.879395 2.01913 0.983936 2.27259 1.17019 2.45995L4.71019 5.99995L1.17019 9.53995C0.983936 9.72731 0.879395 9.98076 0.879395 10.2449C0.879395 10.5091 0.983936 10.7626 1.17019 10.9499C1.26363 11.0426 1.37444 11.116 1.49628 11.1657C1.61812 11.2155 1.74858 11.2407 1.88019 11.2399C2.01179 11.2407 2.14226 11.2155 2.26409 11.1657C2.38593 11.116 2.49675 11.0426 2.59019 10.9499L6.83019 6.70995C6.92392 6.61699 6.99831 6.50638 7.04908 6.38453C7.09985 6.26267 7.12599 6.13196 7.12599 5.99995C7.12599 5.86794 7.09985 5.73723 7.04908 5.61537C6.99831 5.49351 6.92392 5.38291 6.83019 5.28995Z" fill="black"/>
    </symbol>

    <symbol id="angle-left" viewBox="0 0 8 12">
        <path d="M3.28982 5.99995L6.82982 2.45995C7.01607 2.27259 7.12061 2.01913 7.12061 1.75495C7.12061 1.49076 7.01607 1.23731 6.82982 1.04995C6.73686 0.95622 6.62626 0.881826 6.5044 0.831057C6.38254 0.780288 6.25183 0.75415 6.11982 0.75415C5.98781 0.75415 5.8571 0.780288 5.73524 0.831057C5.61339 0.881826 5.50278 0.95622 5.40982 1.04995L1.16982 5.28995C1.07609 5.38291 1.0017 5.49351 0.950931 5.61537C0.900162 5.73723 0.874023 5.86794 0.874023 5.99995C0.874023 6.13196 0.900162 6.26267 0.950931 6.38453C1.0017 6.50638 1.07609 6.61699 1.16982 6.70995L5.40982 10.9999C5.50326 11.0926 5.61408 11.166 5.73592 11.2157C5.85775 11.2655 5.98821 11.2907 6.11982 11.2899C6.25143 11.2907 6.38189 11.2655 6.50373 11.2157C6.62557 11.166 6.73638 11.0926 6.82982 10.9999C7.01607 10.8126 7.12061 10.5591 7.12061 10.2949C7.12061 10.0308 7.01607 9.77731 6.82982 9.58995L3.28982 5.99995Z" fill="black"/>
    </symbol>

    <symbol id="edit" viewBox="0 0 20 20">
        <path d="M20 5.24002C20.0008 5.10841 19.9756 4.97795 19.9258 4.85611C19.876 4.73427 19.8027 4.62346 19.71 4.53002L15.47 0.290017C15.3766 0.197335 15.2658 0.12401 15.1439 0.0742455C15.0221 0.0244809 14.8916 -0.000744179 14.76 1.67143e-05C14.6284 -0.000744179 14.4979 0.0244809 14.3761 0.0742455C14.2543 0.12401 14.1435 0.197335 14.05 0.290017L11.22 3.12002L0.290017 14.05C0.197335 14.1435 0.12401 14.2543 0.0742455 14.3761C0.0244809 14.4979 -0.000744179 14.6284 1.67143e-05 14.76V19C1.67143e-05 19.2652 0.105374 19.5196 0.29291 19.7071C0.480446 19.8947 0.7348 20 1.00002 20H5.24002C5.37994 20.0076 5.51991 19.9857 5.65084 19.9358C5.78176 19.8858 5.90073 19.8089 6.00002 19.71L16.87 8.78002L19.71 6.00002C19.8013 5.9031 19.8757 5.79155 19.93 5.67002C19.9397 5.59031 19.9397 5.50973 19.93 5.43002C19.9347 5.38347 19.9347 5.33657 19.93 5.29002L20 5.24002ZM4.83002 18H2.00002V15.17L11.93 5.24002L14.76 8.07002L4.83002 18ZM16.17 6.66002L13.34 3.83002L14.76 2.42002L17.58 5.24002L16.17 6.66002Z" fill="black"/>
    </symbol>

    <symbol id="angle-down" viewBox="0 0 12 8">
        <path d="M11.0002 1.16994C10.8128 0.983692 10.5594 0.87915 10.2952 0.87915C10.031 0.87915 9.77756 0.983692 9.59019 1.16994L6.00019 4.70994L2.46019 1.16994C2.27283 0.983692 2.01938 0.87915 1.75519 0.87915C1.49101 0.87915 1.23756 0.983692 1.05019 1.16994C0.956464 1.26291 0.88207 1.37351 0.831301 1.49537C0.780533 1.61723 0.754395 1.74793 0.754395 1.87994C0.754395 2.01195 0.780533 2.14266 0.831301 2.26452C0.88207 2.38638 0.956464 2.49698 1.05019 2.58994L5.29019 6.82994C5.38316 6.92367 5.49376 6.99806 5.61562 7.04883C5.73747 7.0996 5.86818 7.12574 6.00019 7.12574C6.1322 7.12574 6.26291 7.0996 6.38477 7.04883C6.50663 6.99806 6.61723 6.92367 6.71019 6.82994L11.0002 2.58994C11.0939 2.49698 11.1683 2.38638 11.2191 2.26452C11.2699 2.14266 11.296 2.01195 11.296 1.87994C11.296 1.74793 11.2699 1.61723 11.2191 1.49537C11.1683 1.37351 11.0939 1.26291 11.0002 1.16994Z" fill="#081C00"/>
    </symbol>

    <symbol id="angle-up" viewBox="0 0 12 8">
        <path d="M11.0002 5.41007L6.71019 1.17007C6.61723 1.07634 6.50663 1.00194 6.38477 0.951175C6.26291 0.900406 6.1322 0.874268 6.00019 0.874268C5.86818 0.874268 5.73747 0.900406 5.61562 0.951175C5.49376 1.00194 5.38316 1.07634 5.29019 1.17007L1.05019 5.41007C0.956464 5.50303 0.88207 5.61363 0.831301 5.73549C0.780533 5.85735 0.754395 5.98805 0.754395 6.12007C0.754395 6.25208 0.780533 6.38278 0.831301 6.50464C0.88207 6.6265 0.956464 6.7371 1.05019 6.83007C1.23756 7.01632 1.49101 7.12086 1.75519 7.12086C2.01938 7.12086 2.27283 7.01632 2.46019 6.83007L6.00019 3.29007L9.54019 6.83007C9.72645 7.01481 9.97785 7.11896 10.2402 7.12007C10.3718 7.12083 10.5023 7.0956 10.6241 7.04584C10.7459 6.99607 10.8568 6.92275 10.9502 6.83007C11.0473 6.74045 11.1256 6.63248 11.1807 6.51241C11.2358 6.39233 11.2666 6.26253 11.2713 6.13049C11.2759 5.99846 11.2543 5.86681 11.2078 5.74315C11.1613 5.6195 11.0907 5.50629 11.0002 5.41007Z" fill="black"/>
    </symbol>

    <symbol id="filter" viewBox="0 0 20 20">
        <path d="M17 0H3C2.20435 0 1.44129 0.316071 0.87868 0.87868C0.316071 1.44129 1.80878e-07 2.20435 1.80878e-07 3V4.17C-0.000143207 4.58294 0.0849664 4.99147 0.25 5.37V5.43C0.39128 5.75097 0.591392 6.04266 0.84 6.29L7 12.41V19C6.99966 19.1699 7.04264 19.3372 7.12487 19.4859C7.20711 19.6346 7.32589 19.7599 7.47 19.85C7.62914 19.9486 7.81277 20.0006 8 20C8.15654 19.9991 8.31068 19.9614 8.45 19.89L12.45 17.89C12.6149 17.8069 12.7536 17.6798 12.8507 17.5227C12.9478 17.3656 12.9994 17.1847 13 17V12.41L19.12 6.29C19.3686 6.04266 19.5687 5.75097 19.71 5.43V5.37C19.8888 4.99443 19.9876 4.58578 20 4.17V3C20 2.20435 19.6839 1.44129 19.1213 0.87868C18.5587 0.316071 17.7956 0 17 0ZM11.29 11.29C11.1973 11.3834 11.124 11.4943 11.0742 11.6161C11.0245 11.7379 10.9992 11.8684 11 12V16.38L9 17.38V12C9.00076 11.8684 8.97554 11.7379 8.92577 11.6161C8.87601 11.4943 8.80268 11.3834 8.71 11.29L3.41 6H16.59L11.29 11.29ZM18 4H2V3C2 2.73478 2.10536 2.48043 2.29289 2.29289C2.48043 2.10536 2.73478 2 3 2H17C17.2652 2 17.5196 2.10536 17.7071 2.29289C17.8946 2.48043 18 2.73478 18 3V4Z" fill="black"/>
    </symbol>

    <symbol id="arrow-up" viewBox="0 0 12 12" >
        <path d="M11.7102 5.2899L6.71019 0.289896C6.61508 0.198856 6.50294 0.127491 6.38019 0.0798963C6.13672 -0.0201217 5.86365 -0.0201217 5.62019 0.0798963C5.49743 0.127491 5.38529 0.198856 5.29019 0.289896L0.290185 5.2899C0.196947 5.38313 0.122986 5.49382 0.072526 5.61565C0.0220657 5.73747 -0.00390625 5.86804 -0.00390625 5.9999C-0.00390625 6.2662 0.101882 6.52159 0.290185 6.7099C0.478489 6.8982 0.733884 7.00399 1.00019 7.00399C1.26649 7.00399 1.52188 6.8982 1.71019 6.7099L5.00019 3.4099V10.9999C5.00019 11.2651 5.10554 11.5195 5.29308 11.707C5.48062 11.8945 5.73497 11.9999 6.00019 11.9999C6.2654 11.9999 6.51976 11.8945 6.70729 11.707C6.89483 11.5195 7.00019 11.2651 7.00019 10.9999V3.4099L10.2902 6.7099C10.3831 6.80363 10.4937 6.87802 10.6156 6.92879C10.7375 6.97956 10.8682 7.00569 11.0002 7.00569C11.1322 7.00569 11.2629 6.97956 11.3848 6.92879C11.5066 6.87802 11.6172 6.80363 11.7102 6.7099C11.8039 6.61693 11.8783 6.50633 11.9291 6.38447C11.9798 6.26261 12.006 6.13191 12.006 5.9999C12.006 5.86788 11.9798 5.73718 11.9291 5.61532C11.8783 5.49346 11.8039 5.38286 11.7102 5.2899Z" fill="black"/>
    </symbol>

    <symbol id="arrow-down" viewBox="0 0 12 12">
        <path d="M11.7102 5.29C11.6172 5.19627 11.5066 5.12188 11.3848 5.07111C11.2629 5.02034 11.1322 4.9942 11.0002 4.9942C10.8682 4.9942 10.7375 5.02034 10.6156 5.07111C10.4937 5.12188 10.3831 5.19627 10.2902 5.29L7.00019 8.59V1C7.00019 0.734784 6.89483 0.48043 6.70729 0.292893C6.51976 0.105357 6.2654 0 6.00019 0C5.73497 0 5.48062 0.105357 5.29308 0.292893C5.10554 0.48043 5.00019 0.734784 5.00019 1V8.59L1.71019 5.29C1.52188 5.1017 1.26649 4.99591 1.00019 4.99591C0.733884 4.99591 0.478489 5.1017 0.290185 5.29C0.101882 5.4783 -0.00390625 5.7337 -0.00390625 6C-0.00390625 6.2663 0.101882 6.5217 0.290185 6.71L5.29019 11.71C5.38529 11.801 5.49743 11.8724 5.62019 11.92C5.73989 11.9729 5.86931 12.0002 6.00019 12.0002C6.13106 12.0002 6.26049 11.9729 6.38019 11.92C6.50294 11.8724 6.61508 11.801 6.71019 11.71L11.7102 6.71C11.8039 6.61704 11.8783 6.50644 11.9291 6.38458C11.9798 6.26272 12.006 6.13201 12.006 6C12.006 5.86799 11.9798 5.73728 11.9291 5.61542C11.8783 5.49356 11.8039 5.38296 11.7102 5.29Z" fill="black"/>
    </symbol>

    <symbol id="close" viewBox="0 0 12 12">
        <path d="M7.40994 5.99994L11.7099 1.70994C11.8982 1.52164 12.004 1.26624 12.004 0.999941C12.004 0.73364 11.8982 0.478245 11.7099 0.289941C11.5216 0.101638 11.2662 -0.00415039 10.9999 -0.00415039C10.7336 -0.00415039 10.4782 0.101638 10.2899 0.289941L5.99994 4.58994L1.70994 0.289941C1.52164 0.101638 1.26624 -0.00415039 0.999939 -0.00415039C0.733637 -0.00415039 0.478243 0.101638 0.289939 0.289941C0.101635 0.478245 -0.00415277 0.73364 -0.00415277 0.999941C-0.00415278 1.26624 0.101635 1.52164 0.289939 1.70994L4.58994 5.99994L0.289939 10.2899C0.196211 10.3829 0.121816 10.4935 0.0710478 10.6154C0.0202791 10.7372 -0.00585938 10.8679 -0.00585938 10.9999C-0.00585938 11.132 0.0202791 11.2627 0.0710478 11.3845C0.121816 11.5064 0.196211 11.617 0.289939 11.7099C0.382902 11.8037 0.493503 11.8781 0.615362 11.9288C0.737221 11.9796 0.867927 12.0057 0.999939 12.0057C1.13195 12.0057 1.26266 11.9796 1.38452 11.9288C1.50638 11.8781 1.61698 11.8037 1.70994 11.7099L5.99994 7.40994L10.2899 11.7099C10.3829 11.8037 10.4935 11.8781 10.6154 11.9288C10.7372 11.9796 10.8679 12.0057 10.9999 12.0057C11.132 12.0057 11.2627 11.9796 11.3845 11.9288C11.5064 11.8781 11.617 11.8037 11.7099 11.7099C11.8037 11.617 11.8781 11.5064 11.9288 11.3845C11.9796 11.2627 12.0057 11.132 12.0057 10.9999C12.0057 10.8679 11.9796 10.7372 11.9288 10.6154C11.8781 10.4935 11.8037 10.3829 11.7099 10.2899L7.40994 5.99994Z" fill="black"/>
    </symbol>

    <symbol id="done" viewBox="0 0 16 12">
        <path d="M14.7099 1.2101C14.617 1.11638 14.5064 1.04198 14.3845 0.991213C14.2627 0.940445 14.132 0.914307 13.9999 0.914307C13.8679 0.914307 13.7372 0.940445 13.6154 0.991213C13.4935 1.04198 13.3829 1.11638 13.29 1.2101L5.83995 8.6701L2.70995 5.5301C2.61343 5.43687 2.49949 5.36355 2.37463 5.31435C2.24978 5.26514 2.11645 5.24101 1.98227 5.24334C1.84809 5.24566 1.71568 5.27438 1.5926 5.32788C1.46953 5.38137 1.35819 5.45858 1.26495 5.55511C1.17171 5.65163 1.0984 5.76557 1.04919 5.89042C0.999989 6.01528 0.975859 6.1486 0.97818 6.28278C0.980502 6.41696 1.00923 6.54937 1.06272 6.67245C1.11622 6.79553 1.19343 6.90687 1.28995 7.0001L5.12995 10.8401C5.22291 10.9338 5.33351 11.0082 5.45537 11.059C5.57723 11.1098 5.70794 11.1359 5.83995 11.1359C5.97196 11.1359 6.10267 11.1098 6.22453 11.059C6.34639 11.0082 6.45699 10.9338 6.54995 10.8401L14.7099 2.68011C14.8115 2.58646 14.8925 2.47281 14.9479 2.34631C15.0033 2.21981 15.0319 2.08321 15.0319 1.94511C15.0319 1.807 15.0033 1.6704 14.9479 1.5439C14.8925 1.4174 14.8115 1.30375 14.7099 1.2101Z" fill="black"/>
    </symbol>

    <symbol id="trash" viewBox="0 0 18 20">
        <path d="M7 16C7.26522 16 7.51957 15.8946 7.70711 15.7071C7.89464 15.5196 8 15.2652 8 15V9C8 8.73478 7.89464 8.48043 7.70711 8.29289C7.51957 8.10536 7.26522 8 7 8C6.73478 8 6.48043 8.10536 6.29289 8.29289C6.10536 8.48043 6 8.73478 6 9V15C6 15.2652 6.10536 15.5196 6.29289 15.7071C6.48043 15.8946 6.73478 16 7 16ZM17 4H13V3C13 2.20435 12.6839 1.44129 12.1213 0.87868C11.5587 0.316071 10.7956 0 10 0H8C7.20435 0 6.44129 0.316071 5.87868 0.87868C5.31607 1.44129 5 2.20435 5 3V4H1C0.734784 4 0.48043 4.10536 0.292893 4.29289C0.105357 4.48043 0 4.73478 0 5C0 5.26522 0.105357 5.51957 0.292893 5.70711C0.48043 5.89464 0.734784 6 1 6H2V17C2 17.7956 2.31607 18.5587 2.87868 19.1213C3.44129 19.6839 4.20435 20 5 20H13C13.7956 20 14.5587 19.6839 15.1213 19.1213C15.6839 18.5587 16 17.7956 16 17V6H17C17.2652 6 17.5196 5.89464 17.7071 5.70711C17.8946 5.51957 18 5.26522 18 5C18 4.73478 17.8946 4.48043 17.7071 4.29289C17.5196 4.10536 17.2652 4 17 4ZM7 3C7 2.73478 7.10536 2.48043 7.29289 2.29289C7.48043 2.10536 7.73478 2 8 2H10C10.2652 2 10.5196 2.10536 10.7071 2.29289C10.8946 2.48043 11 2.73478 11 3V4H7V3ZM14 17C14 17.2652 13.8946 17.5196 13.7071 17.7071C13.5196 17.8946 13.2652 18 13 18H5C4.73478 18 4.48043 17.8946 4.29289 17.7071C4.10536 17.5196 4 17.2652 4 17V6H14V17ZM11 16C11.2652 16 11.5196 15.8946 11.7071 15.7071C11.8946 15.5196 12 15.2652 12 15V9C12 8.73478 11.8946 8.48043 11.7071 8.29289C11.5196 8.10536 11.2652 8 11 8C10.7348 8 10.4804 8.10536 10.2929 8.29289C10.1054 8.48043 10 8.73478 10 9V15C10 15.2652 10.1054 15.5196 10.2929 15.7071C10.4804 15.8946 10.7348 16 11 16Z" fill="black"/>
    </symbol>

    <symbol id="plus" viewBox="0 0 16 16">
        <path d="M15 7H9V1C9 0.734784 8.89464 0.48043 8.70711 0.292893C8.51957 0.105357 8.26522 0 8 0C7.73478 0 7.48043 0.105357 7.29289 0.292893C7.10536 0.48043 7 0.734784 7 1V7H1C0.734784 7 0.48043 7.10536 0.292893 7.29289C0.105357 7.48043 0 7.73478 0 8C0 8.26522 0.105357 8.51957 0.292893 8.70711C0.48043 8.89464 0.734784 9 1 9H7V15C7 15.2652 7.10536 15.5196 7.29289 15.7071C7.48043 15.8946 7.73478 16 8 16C8.26522 16 8.51957 15.8946 8.70711 15.7071C8.89464 15.5196 9 15.2652 9 15V9H15C15.2652 9 15.5196 8.89464 15.7071 8.70711C15.8946 8.51957 16 8.26522 16 8C16 7.73478 15.8946 7.48043 15.7071 7.29289C15.5196 7.10536 15.2652 7 15 7Z" fill="black"/>
    </symbol>

    <symbol id="bars" viewBox="0 0 20 12">
        <path d="M1 2H19C19.2652 2 19.5196 1.89464 19.7071 1.70711C19.8946 1.51957 20 1.26522 20 1C20 0.734784 19.8946 0.48043 19.7071 0.292893C19.5196 0.105357 19.2652 0 19 0H1C0.734784 0 0.48043 0.105357 0.292893 0.292893C0.105357 0.48043 0 0.734784 0 1C0 1.26522 0.105357 1.51957 0.292893 1.70711C0.48043 1.89464 0.734784 2 1 2ZM19 10H1C0.734784 10 0.48043 10.1054 0.292893 10.2929C0.105357 10.4804 0 10.7348 0 11C0 11.2652 0.105357 11.5196 0.292893 11.7071C0.48043 11.8946 0.734784 12 1 12H19C19.2652 12 19.5196 11.8946 19.7071 11.7071C19.8946 11.5196 20 11.2652 20 11C20 10.7348 19.8946 10.4804 19.7071 10.2929C19.5196 10.1054 19.2652 10 19 10ZM19 5H1C0.734784 5 0.48043 5.10536 0.292893 5.29289C0.105357 5.48043 0 5.73478 0 6C0 6.26522 0.105357 6.51957 0.292893 6.70711C0.48043 6.89464 0.734784 7 1 7H19C19.2652 7 19.5196 6.89464 19.7071 6.70711C19.8946 6.51957 20 6.26522 20 6C20 5.73478 19.8946 5.48043 19.7071 5.29289C19.5196 5.10536 19.2652 5 19 5Z" fill="black"/>
    </symbol>

</svg>